<svg xmlns="http://www.w3.org/2000/svg" xmlns:xlink="http://www.w3.org/1999/xlink" viewBox="0 0 430 430" width="430" height="430" preserveAspectRatio="xMidYMid meet" style="width: 100%; height: 100%; transform: translate3d(0px, 0px, 0px); content-visibility: visible;"><defs><clipPath id="__lottie_element_59"><rect width="430" height="430" x="0" y="0"/></clipPath><clipPath id="__lottie_element_61"><path d="M0,0 L430,0 L430,430 L0,430z"/></clipPath><filter id="__lottie_element_67" x="-100%" y="-100%" width="300%" height="300%"><feGaussianBlur result="filter_result_0" stdDeviation="52.5 52.5" edgeMode="wrap"/></filter><g id="__lottie_element_68"><g transform="matrix(0.9999999403953552,0,0,0.9999999403953552,215,215)" opacity="1" style="display: block;"><g opacity="1" transform="matrix(1,0,0,1,0,0)"><path stroke-linecap="round" stroke-linejoin="round" fill-opacity="0" class="primary" stroke="rgb(18,19,49)" stroke-opacity="1" stroke-width="12" d=" M104.11499786376953,176.16700744628906 C104.11499786376953,176.16700744628906 -101.03299713134766,176.16700744628906 -101.03299713134766,176.16700744628906 C-117.26200103759766,176.16700744628906 -130.41700744628906,163.01100158691406 -130.41700744628906,146.78199768066406 C-130.41700744628906,146.78199768066406 -130.41700744628906,-141.3090057373047 -130.41700744628906,-141.3090057373047 C-130.41700744628906,-157.53799438476562 -117.26200103759766,-170.69400024414062 -101.03299713134766,-170.69400024414062 C-101.03299713134766,-170.69400024414062 104.11499786376953,-170.69400024414062 104.11499786376953,-170.69400024414062 C120.34400177001953,-170.69400024414062 133.5,-157.53799438476562 133.5,-141.3090057373047 C133.5,-141.3090057373047 133.5,146.78199768066406 133.5,146.78199768066406 C133.5,163.01100158691406 120.34400177001953,176.16700744628906 104.11499786376953,176.16700744628906z M-61.70399856567383,-9.505999565124512 C-61.70399856567383,-9.505999565124512 -96.79900360107422,-9.505999565124512 -96.79900360107422,-9.505999565124512 C-102.50499725341797,-9.505999565124512 -107.13099670410156,-14.131999969482422 -107.13099670410156,-19.83799934387207 C-107.13099670410156,-19.83799934387207 -107.13099670410156,-54.93299865722656 -107.13099670410156,-54.93299865722656 C-107.13099670410156,-60.638999938964844 -102.50499725341797,-65.26499938964844 -96.79900360107422,-65.26499938964844 C-96.79900360107422,-65.26499938964844 -61.70399856567383,-65.26499938964844 -61.70399856567383,-65.26499938964844 C-55.99800109863281,-65.26499938964844 -51.37200164794922,-60.638999938964844 -51.37200164794922,-54.93299865722656 C-51.37200164794922,-54.93299865722656 -51.37200164794922,-19.83799934387207 -51.37200164794922,-19.83799934387207 C-51.37200164794922,-14.131999969482422 -55.99800109863281,-9.505999565124512 -61.70399856567383,-9.505999565124512z M19.089000701904297,-9.505999565124512 C19.089000701904297,-9.505999565124512 -16.006000518798828,-9.505999565124512 -16.006000518798828,-9.505999565124512 C-21.711999893188477,-9.505999565124512 -26.33799934387207,-14.131999969482422 -26.33799934387207,-19.83799934387207 C-26.33799934387207,-19.83799934387207 -26.33799934387207,-54.93299865722656 -26.33799934387207,-54.93299865722656 C-26.33799934387207,-60.638999938964844 -21.711999893188477,-65.26499938964844 -16.006000518798828,-65.26499938964844 C-16.006000518798828,-65.26499938964844 19.089000701904297,-65.26499938964844 19.089000701904297,-65.26499938964844 C24.795000076293945,-65.26499938964844 29.42099952697754,-60.638999938964844 29.42099952697754,-54.93299865722656 C29.42099952697754,-54.93299865722656 29.42099952697754,-19.83799934387207 29.42099952697754,-19.83799934387207 C29.42099952697754,-14.131999969482422 24.795000076293945,-9.505999565124512 19.089000701904297,-9.505999565124512z M-61.909000396728516,70.49400329589844 C-61.909000396728516,70.49400329589844 -97.00399780273438,70.49400329589844 -97.00399780273438,70.49400329589844 C-102.70999908447266,70.49400329589844 -107.33599853515625,65.86799621582031 -107.33599853515625,60.1619987487793 C-107.33599853515625,60.1619987487793 -107.33599853515625,25.066999435424805 -107.33599853515625,25.066999435424805 C-107.33599853515625,19.361000061035156 -102.70999908447266,14.734999656677246 -97.00399780273438,14.734999656677246 C-97.00399780273438,14.734999656677246 -61.909000396728516,14.734999656677246 -61.909000396728516,14.734999656677246 C-56.202999114990234,14.734999656677246 -51.57600021362305,19.361000061035156 -51.57600021362305,25.066999435424805 C-51.57600021362305,25.066999435424805 -51.57600021362305,60.1619987487793 -51.57600021362305,60.1619987487793 C-51.57600021362305,65.86799621582031 -56.202999114990234,70.49400329589844 -61.909000396728516,70.49400329589844z M18.885000228881836,70.49400329589844 C18.885000228881836,70.49400329589844 -16.211000442504883,70.49400329589844 -16.211000442504883,70.49400329589844 C-21.91699981689453,70.49400329589844 -26.542999267578125,65.86799621582031 -26.542999267578125,60.1619987487793 C-26.542999267578125,60.1619987487793 -26.542999267578125,25.066999435424805 -26.542999267578125,25.066999435424805 C-26.542999267578125,19.361000061035156 -21.91699981689453,14.734999656677246 -16.211000442504883,14.734999656677246 C-16.211000442504883,14.734999656677246 18.885000228881836,14.734999656677246 18.885000228881836,14.734999656677246 C24.590999603271484,14.734999656677246 29.216999053955078,19.361000061035156 29.216999053955078,25.066999435424805 C29.216999053955078,25.066999435424805 29.216999053955078,60.1619987487793 29.216999053955078,60.1619987487793 C29.216999053955078,65.86799621582031 24.590999603271484,70.49400329589844 18.885000228881836,70.49400329589844z M-61.81700134277344,150.99400329589844 C-61.81700134277344,150.99400329589844 -96.91200256347656,150.99400329589844 -96.91200256347656,150.99400329589844 C-102.61799621582031,150.99400329589844 -107.24400329589844,146.3679962158203 -107.24400329589844,140.66200256347656 C-107.24400329589844,140.66200256347656 -107.24400329589844,105.56700134277344 -107.24400329589844,105.56700134277344 C-107.24400329589844,99.86100006103516 -102.61799621582031,95.23500061035156 -96.91200256347656,95.23500061035156 C-96.91200256347656,95.23500061035156 -61.81700134277344,95.23500061035156 -61.81700134277344,95.23500061035156 C-56.111000061035156,95.23500061035156 -51.48500061035156,99.86100006103516 -51.48500061035156,105.56700134277344 C-51.48500061035156,105.56700134277344 -51.48500061035156,140.66200256347656 -51.48500061035156,140.66200256347656 C-51.48500061035156,146.3679962158203 -56.111000061035156,150.99400329589844 -61.81700134277344,150.99400329589844z M18.97599983215332,150.99400329589844 C18.97599983215332,150.99400329589844 -16.118999481201172,150.99400329589844 -16.118999481201172,150.99400329589844 C-21.825000762939453,150.99400329589844 -26.451000213623047,146.3679962158203 -26.451000213623047,140.66200256347656 C-26.451000213623047,140.66200256347656 -26.451000213623047,105.56700134277344 -26.451000213623047,105.56700134277344 C-26.451000213623047,99.86100006103516 -21.825000762939453,95.23500061035156 -16.118999481201172,95.23500061035156 C-16.118999481201172,95.23500061035156 18.97599983215332,95.23500061035156 18.97599983215332,95.23500061035156 C24.68199920654297,95.23500061035156 29.308000564575195,99.86100006103516 29.308000564575195,105.56700134277344 C29.308000564575195,105.56700134277344 29.308000564575195,140.66200256347656 29.308000564575195,140.66200256347656 C29.308000564575195,146.3679962158203 24.68199920654297,150.99400329589844 18.97599983215332,150.99400329589844z M99.88200378417969,-9.505999565124512 C99.88200378417969,-9.505999565124512 64.78700256347656,-9.505999565124512 64.78700256347656,-9.505999565124512 C59.08100128173828,-9.505999565124512 54.45500183105469,-14.131999969482422 54.45500183105469,-19.83799934387207 C54.45500183105469,-19.83799934387207 54.45500183105469,-54.93299865722656 54.45500183105469,-54.93299865722656 C54.45500183105469,-60.638999938964844 59.08100128173828,-65.26499938964844 64.78700256347656,-65.26499938964844 C64.78700256347656,-65.26499938964844 99.88200378417969,-65.26499938964844 99.88200378417969,-65.26499938964844 C105.58799743652344,-65.26499938964844 110.21399688720703,-60.638999938964844 110.21399688720703,-54.93299865722656 C110.21399688720703,-54.93299865722656 110.21399688720703,-19.83799934387207 110.21399688720703,-19.83799934387207 C110.21399688720703,-14.131999969482422 105.58799743652344,-9.505999565124512 99.88200378417969,-9.505999565124512z"/></g><g opacity="1" transform="matrix(1,0,0,1,0,0)"><path stroke-linecap="round" stroke-linejoin="round" fill-opacity="0" class="secondary" stroke="rgb(8,168,138)" stroke-opacity="1" stroke-width="12" d=" M91.36399841308594,-89.39700317382812 C91.36399841308594,-89.39700317382812 -88.28099822998047,-89.39700317382812 -88.28099822998047,-89.39700317382812 C-98.69200134277344,-89.39700317382812 -107.13099670410156,-97.83599853515625 -107.13099670410156,-108.24700164794922 C-107.13099670410156,-108.24700164794922 -107.13099670410156,-126.30500030517578 -107.13099670410156,-126.30500030517578 C-107.13099670410156,-136.71600341796875 -98.69200134277344,-145.156005859375 -88.28099822998047,-145.156005859375 C-88.28099822998047,-145.156005859375 91.36399841308594,-145.156005859375 91.36399841308594,-145.156005859375 C101.7750015258789,-145.156005859375 110.21399688720703,-136.71600341796875 110.21399688720703,-126.30500030517578 C110.21399688720703,-126.30500030517578 110.21399688720703,-108.24700164794922 110.21399688720703,-108.24700164794922 C110.21399688720703,-97.83599853515625 101.7750015258789,-89.39700317382812 91.36399841308594,-89.39700317382812z M99.87300109863281,150.46800231933594 C99.87300109863281,150.46800231933594 64.77799987792969,150.46800231933594 64.77799987792969,150.46800231933594 C59.071998596191406,150.46800231933594 54.44599914550781,145.8419952392578 54.44599914550781,140.13600158691406 C54.44599914550781,140.13600158691406 54.222999572753906,25.041000366210938 54.222999572753906,25.041000366210938 C54.222999572753906,19.334999084472656 58.8489990234375,14.708999633789062 64.55500030517578,14.708999633789062 C64.55500030517578,14.708999633789062 99.6500015258789,14.708999633789062 99.6500015258789,14.708999633789062 C105.35600280761719,14.708999633789062 109.98200225830078,19.334999084472656 109.98200225830078,25.041000366210938 C109.98200225830078,25.041000366210938 110.20500183105469,140.13600158691406 110.20500183105469,140.13600158691406 C110.20500183105469,145.8419952392578 105.5790023803711,150.46800231933594 99.87300109863281,150.46800231933594z"/></g><g opacity="0" transform="matrix(1,0,0,1,72.75,-115.75)"><path class="secondary" fill="rgb(8,168,138)" fill-opacity="1" d=" M2.5,-7.25 C-0.6759999990463257,-7.25 -3.25,-4.676000118255615 -3.25,-1.5 C-3.25,1.6759999990463257 -0.6759999990463257,4.25 2.5,4.25 C5.676000118255615,4.25 8.25,1.6759999990463257 8.25,-1.5 C8.25,-4.676000118255615 5.676000118255615,-7.25 2.5,-7.25z"/><path stroke-linecap="butt" stroke-linejoin="miter" fill-opacity="0" stroke-miterlimit="4" class="secondary" stroke="rgb(8,168,138)" stroke-opacity="1" stroke-width="12" d=" M2.5,-7.25 C-0.6759999990463257,-7.25 -3.25,-4.676000118255615 -3.25,-1.5 C-3.25,1.6759999990463257 -0.6759999990463257,4.25 2.5,4.25 C5.676000118255615,4.25 8.25,1.6759999990463257 8.25,-1.5 C8.25,-4.676000118255615 5.676000118255615,-7.25 2.5,-7.25z"/></g><g opacity="0" transform="matrix(1,0,0,1,72.75,-115.75)"><path class="secondary" fill="rgb(8,168,138)" fill-opacity="1" d=" M-32,-7.25 C-35.17599868774414,-7.25 -37.75,-4.676000118255615 -37.75,-1.5 C-37.75,1.6759999990463257 -35.17599868774414,4.25 -32,4.25 C-28.823999404907227,4.25 -26.25,1.6759999990463257 -26.25,-1.5 C-26.25,-4.676000118255615 -28.823999404907227,-7.25 -32,-7.25z"/><path stroke-linecap="butt" stroke-linejoin="miter" fill-opacity="0" stroke-miterlimit="4" class="secondary" stroke="rgb(8,168,138)" stroke-opacity="1" stroke-width="12" d=" M-32,-7.25 C-35.17599868774414,-7.25 -37.75,-4.676000118255615 -37.75,-1.5 C-37.75,1.6759999990463257 -35.17599868774414,4.25 -32,4.25 C-28.823999404907227,4.25 -26.25,1.6759999990463257 -26.25,-1.5 C-26.25,-4.676000118255615 -28.823999404907227,-7.25 -32,-7.25z"/></g><g opacity="0" transform="matrix(1,0,0,1,72.75,-115.75)"><path class="secondary" fill="rgb(8,168,138)" fill-opacity="1" d=" M-67,-7.25 C-70.1760025024414,-7.25 -72.75,-4.676000118255615 -72.75,-1.5 C-72.75,1.6759999990463257 -70.1760025024414,4.25 -67,4.25 C-63.82400131225586,4.25 -61.25,1.6759999990463257 -61.25,-1.5 C-61.25,-4.676000118255615 -63.82400131225586,-7.25 -67,-7.25z"/><path stroke-linecap="butt" stroke-linejoin="miter" fill-opacity="0" stroke-miterlimit="4" class="secondary" stroke="rgb(8,168,138)" stroke-opacity="1" stroke-width="12" d=" M-67,-7.25 C-70.1760025024414,-7.25 -72.75,-4.676000118255615 -72.75,-1.5 C-72.75,1.6759999990463257 -70.1760025024414,4.25 -67,4.25 C-63.82400131225586,4.25 -61.25,1.6759999990463257 -61.25,-1.5 C-61.25,-4.676000118255615 -63.82400131225586,-7.25 -67,-7.25z"/></g></g></g><mask id="__lottie_element_68_1" mask-type="alpha"><use xmlns:ns1="http://www.w3.org/1999/xlink" ns1:href="#__lottie_element_68"/></mask></defs><g clip-path="url(#__lottie_element_59)"><g clip-path="url(#__lottie_element_61)" transform="matrix(1,0,0,1,0,0)" opacity="1" style="display: block;"><g mask="url(#__lottie_element_68_1)" style="display: block;"><g filter="url(#__lottie_element_67)" transform="matrix(-0.16741624474525452,-2.3941538333892822,2.3941538333892822,-0.16741624474525452,271.9410095214844,220.4600067138672)" opacity="1"><g class="design" opacity="1" transform="matrix(1,0,0,1,0,0)"><path class="primary" fill="rgb(75,225,236)" fill-opacity="1" d=" M0,-250 C137.97500610351562,-250 250,-137.97500610351562 250,0 C250,137.97500610351562 137.97500610351562,250 0,250 C-137.97500610351562,250 -250,137.97500610351562 -250,0 C-250,-137.97500610351562 -137.97500610351562,-250 0,-250z"/></g><g class="design" opacity="1" transform="matrix(1,0,0,1,113.24199676513672,-118.88400268554688)"><path class="secondary" fill="rgb(203,94,238)" fill-opacity="1" d=" M0,-176.5 C97.47799682617188,-176.5 176.5,-97.47799682617188 176.5,0 C176.5,97.47799682617188 97.47799682617188,176.5 0,176.5 C-43.948001861572266,176.5 -74.39600372314453,142.4429931640625 -105.29000091552734,115.86900329589844 C-142.92100524902344,83.5 -176.5,53.53099822998047 -176.5,0 C-176.5,-97.47799682617188 -97.47799682617188,-176.5 0,-176.5z"/></g></g></g></g></g></svg>